<svg xmlns="http://www.w3.org/2000/svg" viewBox="0 0 407.94 427.93"><defs><style>.cls-1{fill:#fff;}</style></defs><g id="Layer_2" data-name="Layer 2"><g id="Layer_1-2" data-name="Layer 1"><path class="cls-1" d="M196.74,112.55c22-9.66,40.55-6.65,56.79,9.17,16.5-15.45,34.82-19.43,57.31-8.58,0-19-.84-35.91.2-52.69,1.47-23.8,19.83-41.63,43.44-43.89,23.07-2.22,44.48,11.53,51,33.48,1.84,6.24,2.3,13.07,2.31,19.63q.24,113.82,0,227.65c-.24,74.4-56.72,130.42-131.59,130.58-23.31.05-46.73.22-69.89-1.92a100.17,100.17,0,0,1-61.23-28.52C100.67,354.29,56.41,311,12.85,266.94c-18.16-18.35-16.54-48.57,1.5-66.38,18.38-18.15,47.12-19,66.87-1.89,5.5,4.78,10.61,10,18.15,17.14v-16c0-50.18-.18-100.35.1-150.53C99.61,22.63,119.12,1.75,144.52.11c25-1.62,48.32,15.43,51.34,39.5,1.84,14.72.72,29.8.86,44.72C196.8,93,196.74,101.7,196.74,112.55Zm55.45,133.34a10,10,0,0,0-2,1.35c-14.56,12.95-31.17,15.94-48.69,7.83s-25.37-23-25.08-42.3c.36-24.06.37-48.12.41-72.18,0-30.7.18-61.41-.14-92.11-.15-13.7-8.58-24.17-21-27.72-11.22-3.2-24.72.89-30.55,11.42a48.5,48.5,0,0,0-5.58,22.36c-.42,64.72-.23,129.45-.27,194.17,0,4.29-.38,8.57-.75,16.42-18.06-18.46-33.39-34.78-49.46-50.34C56.92,203,40,203.43,28.7,214.61s-11.83,28.36.05,40.22Q93.21,319.2,158.53,382.68c18.1,17.5,41,24.95,66.13,25.43,16.27.32,32.54.1,48.81.08,66.74-.05,114.3-47.27,114.34-113.6q.06-109.53,0-219.07c0-5.38.16-10.85-.66-16.14-2-13.2-13.55-22.79-27.07-23.16-14-.38-26.37,9.15-28.71,22.72-.85,4.87-.72,9.92-.71,14.89.07,46.47.45,92.94.24,139.4-.14,30.35-24.12,51.12-52.4,44.89C269.51,256.14,261.39,250.3,252.19,245.89Zm-55.79-63.5c0,11.2-.37,22.42.09,33.6.56,13.57,10.12,23,22.81,23.33,13.18.36,23.87-9.16,24.24-23.19q.87-33,0-65.94c-.35-14-11.08-23.73-24.11-23.43-12.49.3-22.32,9.9-22.92,23.29C196,160.81,196.42,171.61,196.4,182.39Zm67.29.94c0,10.36-.19,20.74.05,31.1.32,14.57,9.32,24.35,22.47,24.86,13.71.54,24.2-9.12,24.59-24.11.56-21.14.5-42.31,0-63.45-.34-15.15-10.4-25.1-23.88-24.94S264,137,263.71,152.22C263.5,162.58,263.67,173,263.69,183.33Z"/></g></g></svg>