<svg xmlns="http://www.w3.org/2000/svg" viewBox="0 0 707.28 400.59"><defs><style>.cls-1{font-size:183.09px;font-family:Montserrat-ExtraBold, Montserrat;font-weight:800;}.cls-1,.cls-3{fill:#0d3b66;}.cls-2{letter-spacing:-0.01em;}</style></defs><g id="Layer_2" data-name="Layer 2"><g id="Layer_1-2" data-name="Layer 1"><text class="cls-1" transform="translate(5.41 179.08)">S<tspan class="cls-2" x="118.46" y="0">a</tspan><tspan x="231.61" y="0">y</tspan></text><text class="cls-1" transform="translate(0 351.52)">Sign</text><path class="cls-3" d="M536.88,90.8c17.78-7.79,32.72-5.36,45.82,7.4,13.31-12.46,28.09-15.68,46.23-6.92,0-15.34-.67-29,.17-42.51,1.19-19.2,16-33.59,35-35.41,18.61-1.79,35.88,9.3,41.12,27a56.8,56.8,0,0,1,1.87,15.84q.18,91.83,0,183.67C707,299.9,661.4,345.1,601,345.23c-18.81,0-37.71.18-56.39-1.55a80.89,80.89,0,0,1-49.4-23c-35.83-34.83-71.54-69.79-106.69-105.31-14.65-14.8-13.34-39.18,1.21-53.55a39.42,39.42,0,0,1,53.95-1.52c4.44,3.85,8.56,8.06,14.65,13.82V161.22c0-40.48-.15-81,.07-121.44.12-21.52,15.86-38.37,36.35-39.69,20.2-1.31,39,12.45,41.42,31.87,1.49,11.87.59,24,.7,36.08C536.93,75.05,536.88,82.05,536.88,90.8Zm44.74,107.58a8.68,8.68,0,0,0-1.62,1.09c-11.74,10.45-25.14,12.87-39.28,6.32s-20.47-18.53-20.23-34.13c.29-19.41.3-38.82.33-58.23,0-24.78.14-49.55-.12-74.32a22.83,22.83,0,0,0-17-22.36c-9.05-2.58-19.94.72-24.64,9.22a39.09,39.09,0,0,0-4.51,18c-.33,52.22-.18,104.44-.21,156.66,0,3.46-.31,6.91-.61,13.25-14.57-14.9-26.93-28.06-39.9-40.62-9.81-9.49-23.45-9.17-32.57-.15s-9.54,22.89,0,32.45q52,51.93,104.7,103.15c14.61,14.12,33.12,20.13,53.36,20.52,13.12.26,26.25.08,39.38.07,53.85-.05,92.22-38.14,92.25-91.65q0-88.38,0-176.75a85.58,85.58,0,0,0-.53-13c-1.65-10.65-10.93-18.39-21.84-18.69-11.33-.31-21.27,7.38-23.17,18.34a69.62,69.62,0,0,0-.57,12c.06,37.49.36,75,.2,112.47-.11,24.48-19.46,41.23-42.28,36.21C595.59,206.65,589,201.94,581.62,198.38Zm-45-51.23c0,9-.3,18.09.07,27.11.45,10.94,8.17,18.55,18.4,18.82,10.64.29,19.26-7.39,19.56-18.71q.71-26.58,0-53.2c-.28-11.29-8.94-19.14-19.45-18.9-10.08.24-18,8-18.5,18.79C536.31,129.74,536.62,138.46,536.61,147.15Zm54.29.76c0,8.36-.15,16.73,0,25.09.27,11.76,7.53,19.65,18.13,20.06,11.07.43,19.53-7.36,19.85-19.46.44-17,.4-34.13,0-51.18-.26-12.23-8.38-20.25-19.26-20.13s-18.5,8.25-18.75,20.52C590.74,131.17,590.88,139.54,590.9,147.91Z"/></g></g></svg>